# xmcd CD database file
#
# Track frame offsets:
#	150
#	40188
#	87525
#	130368
#	178398
#	230483
#	271963
#
# Disc length: 3969 seconds
#
# Revision: 1
# Processed by: cddbd v1.5.2PL0 Copyright (c) Steve Scherf et al.
# Submitted via: CDex 1.51
#
DISCID=630f7f07
DTITLE=Gillespie, Dizzy and Sonny Rollins - The Legendary Sessions, CD1
DYEAR=2014
DGENRE=Jazz
TTITLE0=Weatleigh Hall
TTITLE1=Sumphin'
TTITLE2=Con Alma
TTITLE3=Haute Mon'
TTITLE4=Anythin'
TTITLE5=Con Alma (alternate version)
TTITLE6=On The Sunny Side Of The Street
EXTD=YEAR: 2014
EXTT0=
EXTT1=
EXTT2=
EXTT3=
EXTT4=
EXTT5=
EXTT6=
PLAYORDER=
